<svg width="92" height="95" viewBox="0 0 92 95" fill="none" xmlns="http://www.w3.org/2000/svg">
<path d="M43.9799 1.87322C43.3309 2.54622 38.7279 8.15022 33.7519 14.3262C28.7759 20.5022 22.0719 28.8162 18.8559 32.8022C15.6399 36.7882 13.0079 40.2222 13.0079 40.4322C13.0079 40.6442 27.7799 40.8142 46.1589 40.8142C76.2379 40.8142 79.2849 40.7492 79.0409 40.1142C78.8929 39.7292 75.9019 35.9062 72.3929 31.6182C68.8839 27.3302 63.3229 20.4782 60.0349 16.3912L54.0569 8.96122V14.4902C54.0569 19.9202 54.3329 21.1442 56.1019 23.5432C56.1679 23.6332 57.1599 23.8822 58.3059 24.0962C62.2749 24.8382 62.9429 26.5282 60.3849 29.3602C58.8219 31.0902 58.2669 33.6762 59.1509 35.1072C60.2419 36.8732 57.1209 38.4472 54.7759 37.3122C52.5799 36.2492 51.5989 36.1972 50.0839 37.0632C46.9289 38.8672 44.9719 37.5522 45.3989 33.9162C45.6849 31.4862 45.6599 31.4132 43.9139 29.5192C41.4059 26.7982 41.8469 24.8682 45.1069 24.2912C48.0249 23.7742 48.3149 23.5782 49.4299 21.3762C50.4619 19.3382 50.5249 18.8082 50.5249 11.9802V4.74322L49.1639 3.03022C46.9089 0.193217 45.8309 -0.046783 43.9809 1.87422L43.9799 1.87322ZM51.2769 25.1772C50.8409 25.7652 49.8479 26.5702 49.0699 26.9662C47.1669 27.9332 47.1879 27.8932 48.0629 28.8602C48.4869 29.3282 48.9349 30.4712 49.0599 31.4012L49.2869 33.0902H55.1589L55.2429 31.5792C55.2889 30.7482 55.7319 29.5202 56.2259 28.8512L57.1249 27.6352L55.5969 27.1312C54.7569 26.8542 53.6189 26.0602 53.0689 25.3672L52.0689 24.1082L51.2769 25.1772ZM18.9159 53.0052C15.0589 57.7682 10.7619 63.0492 9.36593 64.7422C5.99693 68.8262 5.71292 68.6212 14.7469 68.6212H22.6659L22.0789 67.4892C20.8379 65.0982 22.2209 63.5662 26.1979 62.9252C28.9519 62.4812 31.1049 61.4992 31.1049 60.6852C31.1049 60.4592 31.7009 59.2632 32.4289 58.0282C33.7169 55.8442 33.7529 55.6242 33.7529 50.0642V44.3452H25.9289L18.9159 53.0052ZM37.2829 49.7882V55.2322L39.1149 58.6042C41.0929 62.2442 41.4969 62.5162 45.7879 63.0962C49.0789 63.5412 50.1369 65.1142 48.9879 67.8482C48.6819 68.5772 49.7099 68.6202 67.0639 68.6202C80.2569 68.6202 85.4199 68.4822 85.3029 68.1342C85.2139 67.8672 80.8939 62.4052 75.7029 55.9962L66.2649 44.3442H37.2809V49.7882H37.2829ZM34.7059 61.3082C33.7449 63.9652 30.0749 66.4022 27.0209 66.4112C25.8809 66.4152 26.0679 66.9482 27.8019 68.6292C29.6729 70.4422 30.3549 72.6922 29.9539 75.7192L29.6549 77.9712L31.5929 76.9742C34.1769 75.6442 36.9709 75.6242 39.4319 76.9172C41.7439 78.1322 41.7079 78.1542 41.2699 75.7622C40.6869 72.5832 41.2829 70.8802 44.0179 67.9092L45.2829 66.5352L43.1039 66.2462C40.3129 65.8762 37.7349 64.0302 36.6509 61.6272C35.6469 59.4012 35.4099 59.3622 34.7059 61.3082ZM13.6689 77.7372C11.2419 80.7802 7.31893 85.6822 4.95193 88.6292C2.58493 91.5762 0.648926 94.1402 0.648926 94.3252C0.648926 94.5102 21.1069 94.6622 46.1109 94.6622C71.1149 94.6622 91.5729 94.5012 91.5729 94.3032C91.5729 94.1062 87.5909 89.0412 82.7239 83.0482L73.8749 72.1512H59.3829C42.7379 72.1512 44.2139 71.6672 44.9429 76.8832C45.6629 82.0362 43.7049 83.1542 38.6079 80.5012C35.7589 79.0182 35.4359 79.0332 31.8919 80.8142C27.2749 83.1342 25.3409 81.6992 26.1869 76.5802C26.9159 72.1672 26.8959 72.1462 22.1199 72.1772L18.0849 72.2032L13.6709 77.7362L13.6689 77.7372Z" fill="white"/>
</svg>
